<mxfile host="app.diagrams.net" modified="2025-08-21" agent="trae-ai">
  <diagram name="技术架构-简版">
    <mxGraphModel dx="1400" dy="900" grid="1" gridSize="10" guides="1" tooltips="1" connect="1" arrows="1" fold="1" page="1" pageScale="1" pageWidth="1400" pageHeight="900" math="0" shadow="0">
      <root>
        <mxCell id="0"/>
        <mxCell id="1" parent="0"/>

        <mxCell id="t1" value="Web 前端\nVite + React + Tailwind" style="rounded=1;whiteSpace=wrap;html=1;fillColor=#dae8fc;strokeColor=#6c8ebf;" vertex="1" parent="1">
          <mxGeometry x="80" y="140" width="200" height="90" as="geometry"/>
        </mxCell>
        <mxCell id="t2" value="鉴权\nSupabase Auth" style="rounded=1;whiteSpace=wrap;html=1;fillColor=#fff2cc;strokeColor=#d6b656;" vertex="1" parent="1">
          <mxGeometry x="340" y="140" width="180" height="90" as="geometry"/>
        </mxCell>
        <mxCell id="t3" value="BFF / API 层\n业务编排/权限/审计" style="rounded=1;whiteSpace=wrap;html=1;fillColor=#e1d5e7;strokeColor=#9673a6;" vertex="1" parent="1">
          <mxGeometry x="560" y="140" width="220" height="90" as="geometry"/>
        </mxCell>
        <mxCell id="t4" value="Postgres\n结构化数据" style="rounded=1;whiteSpace=wrap;html=1;fillColor=#d5e8d4;strokeColor=#82b366;" vertex="1" parent="1">
          <mxGeometry x="860" y="100" width="200" height="80" as="geometry"/>
        </mxCell>
        <mxCell id="t5" value="对象存储/导出\n报告/附件/PDF" style="rounded=1;whiteSpace=wrap;html=1;fillColor=#d5e8d4;strokeColor=#82b366;" vertex="1" parent="1">
          <mxGeometry x="860" y="220" width="200" height="80" as="geometry"/>
        </mxCell>
        <mxCell id="t6" value="AI 推理/模板渲染\n异步任务队列" style="rounded=1;whiteSpace=wrap;html=1;fillColor=#f8cecc;strokeColor=#b85450;" vertex="1" parent="1">
          <mxGeometry x="560" y="280" width="220" height="90" as="geometry"/>
        </mxCell>
        <mxCell id="t7" value="可观测性\n日志/指标/告警/追踪" style="rounded=1;whiteSpace=wrap;html=1;fillColor=#ffffff;strokeColor=#999999;dashed=1;" vertex="1" parent="1">
          <mxGeometry x="1120" y="140" width="220" height="90" as="geometry"/>
        </mxCell>

        <!-- 连线 -->
        <mxCell id="e12" style="edgeStyle=elbowEdgeStyle;rounded=1;endArrow=block;html=1;strokeColor=#6c8ebf;" edge="1" parent="1" source="t1" target="t2"><mxGeometry relative="1" as="geometry"/></mxCell>
        <mxCell id="e23" style="edgeStyle=elbowEdgeStyle;rounded=1;endArrow=block;html=1;strokeColor=#6c8ebf;" edge="1" parent="1" source="t2" target="t3"><mxGeometry relative="1" as="geometry"/></mxCell>
        <mxCell id="e34a" style="edgeStyle=elbowEdgeStyle;rounded=1;endArrow=block;html=1;strokeColor=#82b366;" edge="1" parent="1" source="t3" target="t4"><mxGeometry relative="1" as="geometry"/></mxCell>
        <mxCell id="e34b" style="edgeStyle=elbowEdgeStyle;rounded=1;endArrow=block;html=1;strokeColor=#82b366;" edge="1" parent="1" source="t3" target="t5"><mxGeometry relative="1" as="geometry"/></mxCell>
        <mxCell id="e36" style="edgeStyle=elbowEdgeStyle;rounded=1;endArrow=block;html=1;strokeColor=#b85450;" edge="1" parent="1" source="t3" target="t6"><mxGeometry relative="1" as="geometry"/></mxCell>
        <mxCell id="e37" style="edgeStyle=elbowEdgeStyle;rounded=1;endArrow=block;html=1;strokeColor=#999999;dashed=1;" edge="1" parent="1" source="t3" target="t7"><mxGeometry relative="1" as="geometry"/></mxCell>
      </root>
    </mxGraphModel>
  </diagram>
</mxfile>